<svg width="20" height="24" viewBox="0 0 20 24" fill="none" xmlns="http://www.w3.org/2000/svg">
<path d="M18.2031 12.0005C18.491 11.175 18.7597 10.3398 19.0044 9.51905C19.741 7.02796 19.1052 4.29449 17.3418 2.38418C15.8663 0.788247 13.7743 -0.0805138 11.603 0.00588231C11.0608 0.0274813 10.5234 0.111478 9.99796 0.250671C9.47494 0.111478 8.93513 0.0274813 8.39292 0.00588231C6.22407 -0.0781139 4.1296 0.788247 2.65411 2.38418C0.893124 4.29449 0.254946 7.02796 0.993889 9.51905C1.23621 10.3398 1.50731 11.175 1.79521 12.0005C1.50731 12.8261 1.2386 13.6613 0.993889 14.482C0.257345 16.9731 0.893124 19.7066 2.65651 21.6169C4.06482 23.1408 6.03454 24 8.10022 24C8.19859 24 8.29695 24 8.39532 23.9952C8.93753 23.9736 9.47494 23.8896 10.0004 23.7504C10.5234 23.8896 11.0632 23.9736 11.6054 23.9952C11.7038 24 11.8021 24 11.9005 24C13.9662 24 15.9359 23.1408 17.3442 21.6169C19.1076 19.709 19.7434 16.9731 19.0068 14.482C18.7645 13.6613 18.4934 12.8261 18.2055 12.0005H18.2031ZM5.89299 19.8482C4.53026 17.3403 3.35947 14.7004 2.407 12.0005C3.35947 9.30066 4.53026 6.66078 5.89299 4.15289C6.76149 2.55457 8.25377 1.35702 9.99796 0.850644C11.7422 1.35702 13.2344 2.55457 14.1029 4.15289C15.4657 6.66078 16.6365 9.30066 17.5889 12.0005C16.6365 14.7004 15.4657 17.3403 14.1029 19.8482C13.2344 21.4465 11.7422 22.6441 9.99796 23.1504C8.25377 22.6441 6.76149 21.4465 5.89299 19.8482Z" fill="black"/>
</svg>
