<svg width="21" height="21" viewBox="0 0 21 21" fill="none" xmlns="http://www.w3.org/2000/svg">
<path d="M14.2455 6.061C13.1605 4.514 11.3665 3.5 9.3335 3.5C6.0195 3.5 3.3335 6.186 3.3335 9.5C3.3335 10.679 3.6785 11.775 4.2655 12.703L3.3335 15.5L5.9285 14.635" stroke="black" stroke-width="2" stroke-linecap="round" stroke-linejoin="round"/>
<path d="M9.3335 13.5C9.3335 15.709 11.1245 17.5 13.3335 17.5C14.1195 17.5 14.8505 17.27 15.4685 16.878L17.3335 17.5L16.7115 15.635C17.1035 15.017 17.3335 14.286 17.3335 13.5C17.3335 11.291 15.5425 9.5 13.3335 9.5C11.1245 9.5 9.3335 11.291 9.3335 13.5Z" fill="black" stroke="black" stroke-width="2" stroke-linecap="round" stroke-linejoin="round"/>
</svg>
