<svg width="20" height="20" viewBox="0 0 20 20" fill="none" xmlns="http://www.w3.org/2000/svg">
<path d="M15.8653 8.13473L16.4142 7.58583C17.1953 6.80473 17.1953 5.53843 16.4142 4.75743L15.2426 3.58582C14.4616 2.80472 13.1952 2.80472 12.4142 3.58582L4 12L3 17L8 16L9.1598 14.8402" stroke="black" stroke-width="2" stroke-linecap="round" stroke-linejoin="round"/>
<path d="M5.25 4.5C5.66421 4.5 6 4.83579 6 5.25C6 5.66421 5.66421 6 5.25 6C4.83579 6 4.5 5.66421 4.5 5.25C4.5 4.83579 4.83579 4.5 5.25 4.5Z" fill="black" stroke="black"/>
<path d="M14.0068 10.5C14.0545 10.5 14.0926 10.5122 14.1152 10.5254C14.1342 10.5365 14.139 10.5458 14.1416 10.5527V10.5537L14.6836 11.9971L14.7637 12.21L14.9766 12.2891L16.4199 12.8311C16.4762 12.8524 16.5136 12.9064 16.5137 12.9658C16.5137 13.0105 16.4923 13.052 16.458 13.0791L16.4199 13.1016L14.9766 13.6426L14.7637 13.7227L14.6836 13.9346L14.1416 15.3789V15.3799C14.1208 15.4354 14.0672 15.4726 14.0068 15.4727C13.9465 15.4727 13.8929 15.4354 13.8721 15.3799V15.3789L13.3301 13.9346L13.25 13.7227L13.0371 13.6426L11.5938 13.1016C11.5372 13.0803 11.5 13.0254 11.5 12.9658C11.5001 12.9211 11.5213 12.8795 11.5557 12.8525L11.5938 12.8311L13.0371 12.2891L13.25 12.21L13.3301 11.9971L13.8721 10.5537V10.5527C13.8747 10.5458 13.8795 10.5365 13.8984 10.5254C13.9211 10.5122 13.9592 10.5 14.0068 10.5Z" fill="black" stroke="black"/>
</svg>
